<?xml version="1.0" encoding="UTF-8"?>
<svg width="24px" height="24px" viewBox="0 0 24 24" version="1.1" xmlns="http://www.w3.org/2000/svg" xmlns:xlink="http://www.w3.org/1999/xlink">
    <!-- Generator: Sketch 53.2 (72643) - https://sketchapp.com -->
    <title>24x24/USER INTERFACE/warning-01</title>
    <desc>Created with Sketch.</desc>
    <g id="24x24/USER-INTERFACE/warning-01" stroke="none" stroke-width="1" fill="none" fill-rule="evenodd">
        <g id="warning-01">
            <g id="Bounding_Boxes">
                <polygon id="Shape" points="0 0 24 0 24 24 0 24"></polygon>
            </g>
            <rect class="primary" id="c2/warning-01" fill="#B0A8FF" x="9" y="19" width="6" height="2"></rect>
            <path class="secondary" d="M16,20.4 L16,19.6 C16,19.2686292 16.2686292,19 16.6,19 L18.965335,19 C19.1862489,19 19.365335,18.8209139 19.365335,18.6 C19.365335,18.5311757 19.3475769,18.4635158 19.3137777,18.4035625 L12.3483012,6.0481365 C12.2398118,5.85569692 11.9958606,5.7876419 11.803421,5.89613134 C11.7398298,5.93198147 11.6872617,5.9845504 11.6514126,6.04814227 L4.68620603,18.4035683 C4.57771977,18.5960096 4.64577884,18.8399597 4.83822021,18.9484459 C4.89817209,18.982243 4.96582995,19 5.03465196,19 L7.4,19 C7.73137085,19 8,19.2686292 8,19.6 L8,20.4 C8,20.7313708 7.73137085,21 7.4,21 L3.67115208,21 C2.74820027,21 2,20.2579496 2,19.342584 C2,19.0579446 2.07391262,18.778102 2.21461681,18.5300172 L10.5433165,3.84514311 C10.995804,3.04733288 12.0147307,2.76437845 12.8191529,3.2131467 C13.0859097,3.36196406 13.3063364,3.58057893 13.4563871,3.84514311 L21.7850868,18.5300172 C22.2375743,19.3278274 21.9522748,20.338379 21.1478526,20.7871472 C20.8977118,20.9266949 20.6155499,21 20.3285515,21 L16.6,21 C16.2686292,21 16,20.7313708 16,20.4 Z M11.4,16 L12.6,16 C12.8209139,16 13,16.1790861 13,16.4 L13,17.6 C13,17.8209139 12.8209139,18 12.6,18 L11.4,18 C11.1790861,18 11,17.8209139 11,17.6 L11,16.4 C11,16.1790861 11.1790861,16 11.4,16 Z M11.4,9 L12.6,9 C12.8209139,9 13,9.1790861 13,9.40000001 L13,14.6 C13,14.8209139 12.8209139,15 12.6,15 L11.4,15 C11.1790861,15 11,14.8209139 11,14.6 L11,9.40000001 C11,9.1790861 11.1790861,9 11.4,9 Z" id="c1/warning-01" fill="#594BC8"></path>
        </g>
    </g>
</svg>