<?xml version="1.0" encoding="UTF-8"?>
<svg width="24px" height="24px" viewBox="0 0 24 24" version="1.1" xmlns="http://www.w3.org/2000/svg" xmlns:xlink="http://www.w3.org/1999/xlink">
    <!-- Generator: Sketch 53.2 (72643) - https://sketchapp.com -->
    <title>24x24/SELECTION TYPES/selected</title>
    <desc>Created with Sketch.</desc>
    <g id="24x24/SELECTION-TYPES/selected" stroke="none" stroke-width="1" fill="none" fill-rule="evenodd">
        <g id="selected">
            <g id="Bounding_Boxes">
                <polygon id="Shape" points="0 0 24 0 24 24 0 24"></polygon>
            </g>
            <path class="primary" d="M19.3802314,5.27841708 C19.7507759,4.90719431 20.3515472,4.90719431 20.7220916,5.27841708 C21.0926361,5.64963985 21.0926361,6.25151089 20.7220916,6.62273366 L18.6993608,8.64916724 C18.3291554,9.02005025 17.7283846,9.02059961 17.3575016,8.65039428 C17.3572969,8.65018996 17.3570923,8.64998555 17.3568878,8.64978104 L17.3568878,8.64978104 C16.9859052,8.27879844 16.9856302,7.67740164 17.3562735,7.30607995 L19.3802314,5.27841708 Z" id="c2/selected" fill="#B0A8FF"></path>
            <path class="secondary" d="M16.6504276,9.35753443 L16.6504276,9.35753443 C17.0214103,9.72851704 17.0216852,10.3299138 16.651042,10.7012355 L8.64534937,18.7215829 C8.27480489,19.0928057 7.67403359,19.0928057 7.30348912,18.7215829 L3.27790836,14.6886332 C2.90736388,14.3174104 2.90736388,13.7155394 3.27790836,13.3443166 C3.64845283,12.9730938 4.24922413,12.9730938 4.61976861,13.3443166 L7.97441924,16.705108 L15.3079547,9.35814823 C15.67816,8.98726522 16.2789308,8.98671586 16.6498138,9.35692119 C16.6500185,9.35712551 16.6502231,9.35732992 16.6504276,9.35753443 Z" id="c1/selected" fill="#594BC8"></path>
        </g>
    </g>
</svg>