<?xml version="1.0" encoding="UTF-8"?>
<svg width="24px" height="24px" viewBox="0 0 24 24" version="1.1" xmlns="http://www.w3.org/2000/svg" xmlns:xlink="http://www.w3.org/1999/xlink">
    <!-- Generator: Sketch 53.2 (72643) - https://sketchapp.com -->
    <title>24x24/SELECTION TYPES/delete</title>
    <desc>Created with Sketch.</desc>
    <g id="24x24/SELECTION-TYPES/delete" stroke="none" stroke-width="1" fill="none" fill-rule="evenodd">
        <g id="delete">
            <g id="Bounding_Boxes">
                <polygon id="Shape" points="0 0 24 0 24 24 0 24"></polygon>
            </g>
            <path class="primary" d="M14.8342593,13.4221453 L18.7075416,17.2954276 C19.0974861,17.6853721 19.0974861,18.3175971 18.7075416,18.7075416 C18.3175971,19.0974861 17.6853721,19.0974861 17.2954276,18.7075416 L13.4221453,14.8342593 C13.0322008,14.4443148 13.0322008,13.8120898 13.4221453,13.4221453 L13.4221453,13.4221453 C13.8120898,13.0322008 14.4443148,13.0322008 14.8342593,13.4221453 Z" id="c2/delete" fill="#B0A8FF"></path>
            <path class="secondary" d="M6.70457241,18.7075416 C6.31462789,19.0974861 5.68240291,19.0974861 5.29245839,18.7075416 C4.90251387,18.3175971 4.90251387,17.6853721 5.29245839,17.2954276 L10.587886,12 L5.29245839,6.70457241 C4.90251387,6.31462789 4.90251387,5.68240291 5.29245839,5.29245839 C5.68240291,4.90251387 6.31462789,4.90251387 6.70457241,5.29245839 L12,10.587886 L17.2954276,5.29245839 C17.6853721,4.90251387 18.3175971,4.90251387 18.7075416,5.29245839 C19.0974861,5.68240291 19.0974861,6.31462789 18.7075416,6.70457241 L6.70457241,18.7075416 Z" id="c1/delete" fill="#594BC8"></path>
        </g>
    </g>
</svg>