<?xml version="1.0" encoding="UTF-8"?>
<svg width="24px" height="24px" viewBox="0 0 24 24" version="1.1" xmlns="http://www.w3.org/2000/svg" xmlns:xlink="http://www.w3.org/1999/xlink">
    <!-- Generator: Sketch 53.2 (72643) - https://sketchapp.com -->
    <title>24x24/COMMUNICATION/chat</title>
    <desc>Created with Sketch.</desc>
    <g id="24x24/COMMUNICATION/chat" stroke="none" stroke-width="1" fill="none" fill-rule="evenodd">
        <g id="chat">
            <g id="Bounding_Boxes">
                <polygon id="Shape" points="0 0 24 0 24 24 0 24"></polygon>
            </g>
            <path class="primary" d="M10,8 C10.5522847,8 11,8.44771525 11,9 C11,9.55228475 10.5522847,10 10,10 C9.44771525,10 9,9.55228475 9,9 C9,8.44771525 9.44771525,8 10,8 Z" id="c2/chat" fill="#B0A8FF"></path>
            <path class="secondary" d="M17.8739825,6 L18,6 C20.209139,6 22,7.790861 22,10 L22,14 C22,15.8638394 20.7252272,17.4299397 19,17.8739825 L19,20.4000244 C19,20.5087708 18.9704453,20.6167727 18.9144958,20.710022 C18.7440069,20.9941701 18.3754507,21.080462 18.0913025,20.9099731 L12.723016,18 L11,18 C9.84780003,18 8.80938235,17.5128401 8.07948601,16.7332594 L5.90869745,17.9099731 C5.62454929,18.080462 5.25599314,17.9941701 5.08550424,17.710022 C5.0295547,17.6167727 5,17.5087708 5,17.4000244 L5,14.8739825 C3.27477279,14.4299397 2,12.8638394 2,11 L2,7 C2,4.790861 3.790861,3 6,3 L14,3 C15.8638394,3 17.4299397,4.27477279 17.8739825,6 Z M18,8 L18,11 C18,13.209139 16.209139,15 14,15 L11.276984,15 L9.9645408,15.7114327 C10.2665836,15.8945682 10.6209794,16 11,16 L13.276984,16 L16.6971008,18.0520701 C16.7281839,18.07072 16.7637512,18.0805715 16.8,18.0805715 C16.9104569,18.0805715 17,17.9910285 17,17.8805715 L17,16.6 C17,16.2686292 17.2686292,16 17.6,16 L18,16 C19.1045695,16 20,15.1045695 20,14 L20,10 C20,8.8954305 19.1045695,8 18,8 Z M6,5 C4.8954305,5 4,5.8954305 4,7 L4,11 C4,12.1045695 4.8954305,13 6,13 L6.4,13 C6.73137085,13 7,13.2686292 7,13.6 L7,14.8805715 C7,14.9910285 7.08954305,15.0805715 7.2,15.0805715 C7.23624879,15.0805715 7.27181607,15.07072 7.30289915,15.0520701 L10.723016,13 L14,13 C15.1045695,13 16,12.1045695 16,11 L16,7 C16,5.8954305 15.1045695,5 14,5 L6,5 Z M7,8 C7.55228475,8 8,8.44771525 8,9 C8,9.55228475 7.55228475,10 7,10 C6.44771525,10 6,9.55228475 6,9 C6,8.44771525 6.44771525,8 7,8 Z M13,8 C13.5522847,8 14,8.44771525 14,9 C14,9.55228475 13.5522847,10 13,10 C12.4477153,10 12,9.55228475 12,9 C12,8.44771525 12.4477153,8 13,8 Z" id="c1/chat" fill="#594BC8"></path>
        </g>
    </g>
</svg>