<?xml version="1.0" encoding="UTF-8"?>
<svg width="24px" height="24px" viewBox="0 0 24 24" version="1.1" xmlns="http://www.w3.org/2000/svg" xmlns:xlink="http://www.w3.org/1999/xlink">
    <!-- Generator: Sketch 53.2 (72643) - https://sketchapp.com -->
    <title>24x24/COMMUNICATION/email-flag-unselected</title>
    <desc>Created with Sketch.</desc>
    <g id="24x24/COMMUNICATION/email-flag-unselected" stroke="none" stroke-width="1" fill="none" fill-rule="evenodd">
        <g id="email-flag-unselected">
            <g id="Bounding_Boxes">
                <polygon id="Shape" points="0 0 24 0 24 24 0 24"></polygon>
            </g>
            <rect class="primary" id="c2/email-flag-unselected" fill="#B0A8FF" x="4" y="18" width="2" height="4" rx="1"></rect>
            <path class="secondary" d="M5.99999659,13 L5.99999659,16 C5.99999659,16.5522847 5.5522821,17 4.99999829,17 C4.44771449,17 4,16.5522847 4,16 L4,3 C4,2.44771525 4.44771449,2 4.99999829,2 C5.5522821,2 5.99999659,2.44771525 5.99999659,3 C7.66666041,2.33333333 8.99999146,2 9.99998976,2 C10.9999881,2 11.9999863,2.33333333 12.9999846,3 C13.9999829,3.66666667 14.9999812,4 15.9999795,4 C17.1774115,4 18.1884865,3.66727579 19.0332045,3.00182738 C19.0962423,2.9521677 19.1929156,2.86083507 19.3232244,2.72782947 L19.3231937,2.72779936 C19.4757845,2.57205064 19.725743,2.56949062 19.8814917,2.72208138 C19.9572862,2.79633907 19.9999987,2.89798089 19.9999987,3.00408938 L19.9999736,11.6837509 C19.999973,11.8885662 19.9308222,12.0873825 19.8037237,12.2479915 C18.8278099,13.4159972 17.5598952,14 15.9999795,14 C14.9999812,14 13.9999829,13.6666667 12.9999846,13 C11.9999863,12.3333333 10.9999881,12 9.99998976,12 C8.99999146,12 7.66666041,12.3333333 5.99999659,13 Z M17.6010756,5.83168021 C17.0901092,5.94359843 16.5554791,6 15.9999921,6 C14.5842045,6 13.2046844,5.54015919 11.8905987,4.66410059 C11.2046878,4.20682586 10.5842113,4 10.0000024,4 C9.29985274,4 8.19402962,4.27645625 6.74278927,4.85695338 C6.50291579,4.95290294 6.32301068,5.02486511 6.20307394,5.07283988 C6.08042981,5.12189762 6.00000919,5.2406816 6.00000919,5.3727734 L6.00000919,10.4369823 C6.00000919,10.6016835 6.13352593,10.7352003 6.29822718,10.7352003 C6.33210458,10.7352003 6.36573432,10.7294279 6.39767266,10.7181309 C7.7814494,10.2439213 8.9722992,10 10.0000024,10 C11.41579,10 12.7953101,10.4598408 14.1093957,11.3358994 C14.7953067,11.7931741 15.4157832,12 15.9999921,12 C16.7261871,12 17.3069745,11.8184688 17.8035696,11.4247987 C17.9283496,11.3162471 17.9999911,11.1589668 17.9999916,10.9935778 L18.0000056,6.1429411 C18.0000062,5.96571663 17.8563378,5.8220474 17.6791133,5.82204688 C17.6528042,5.82204681 17.6265949,5.8252822 17.6010756,5.83168021 Z" id="c1/email-flag-unselected" fill="#594BC8"></path>
        </g>
    </g>
</svg>