<?xml version="1.0" encoding="UTF-8"?>
<svg width="24px" height="24px" viewBox="0 0 24 24" version="1.1" xmlns="http://www.w3.org/2000/svg" xmlns:xlink="http://www.w3.org/1999/xlink">
    <!-- Generator: Sketch 53.2 (72643) - https://sketchapp.com -->
    <title>24x24/USER INTERFACE/home</title>
    <desc>Created with Sketch.</desc>
    <g id="24x24/USER-INTERFACE/home" stroke="none" stroke-width="1" fill="none" fill-rule="evenodd">
        <g id="home">
            <g id="Bounding_Boxes">
                <polygon id="Shape" points="0 0 24 0 24 24 0 24"></polygon>
            </g>
            <path class="primary" d="M10,12 L13.9998907,12 C14.5521754,12 14.9998907,12.4477153 14.9998907,13 L14.9998907,13 C14.9998907,13.5522847 14.5521754,14 13.9998907,14 L10,14 C9.44771525,14 9,13.5522847 9,13 L9,13 C9,12.4477153 9.44771525,12 10,12 Z" id="c2/home" fill="#B0A8FF"></path>
            <path class="secondary" d="M4.00032791,9.56699877 L3.48579804,9.87168056 C3.0030231,10.1398937 2.3942309,9.96594995 2.12602261,9.48316622 C1.85781431,9.00038249 2.03175494,8.3915792 2.51452987,8.12336601 L10.5430977,3.37752817 C11.4491489,2.87415728 12.5508511,2.87415728 13.4569023,3.37752817 L21.4854701,8.12336601 C21.9682451,8.3915792 22.1421857,9.00038249 21.8739774,9.48316622 C21.6057691,9.96594995 20.9969769,10.1398937 20.514202,9.87168056 L20.0000364,9.56721452 L20.0000364,20.4 C20.0000364,20.7313708 19.7314122,21 19.4000474,21 L13.600153,21 C13.2687882,21 13.000164,20.7313708 13.000164,20.4 L13.000164,17.2 C13.000164,17.0895431 12.9106209,17 12.800164,17 L11.2002004,17 C11.0897434,17 11.0002004,17.0895431 11.0002004,17.2 L11.0002004,20.4 C11.0002004,20.7313708 10.7315761,21 10.4002113,21 L4.60031698,21 C4.26895217,21 4.00032791,20.7313708 4.00032791,20.4 L4.00032791,9.56699877 Z M6.00029148,8.38270897 L6.00029148,18.8 C6.00029148,18.9104569 6.0898329,19 6.20028784,19 L8.80024047,19 C8.91069541,19 9.00023683,18.9104569 9.00023683,18.8 L9.00023683,16 C9.00023683,15.4477153 9.44795208,15 10.0002368,15 L14.0001275,15 C14.5524123,15 15.0001275,15.4477153 15.0001275,16 L15.0001275,18.8 C15.0001275,18.9104569 15.0896689,19 15.2001239,19 L17.8000765,19 C17.9105315,19 18.0000729,18.9104569 18.0000729,18.8 L18.0000729,8.38292472 L12.4856341,5.11751841 C12.183617,4.94972811 11.816383,4.94972811 11.5143659,5.11751841 L6.00029148,8.38270897 Z" id="c1/home" fill="#594BC8"></path>
        </g>
    </g>
</svg>