<?xml version="1.0" encoding="UTF-8"?>
<svg width="24px" height="24px" viewBox="0 0 24 24" version="1.1" xmlns="http://www.w3.org/2000/svg" xmlns:xlink="http://www.w3.org/1999/xlink">
    <!-- Generator: Sketch 53.2 (72643) - https://sketchapp.com -->
    <title>24x24/DESIGN TOOLS/lock</title>
    <desc>Created with Sketch.</desc>
    <g id="24x24/DESIGN-TOOLS/lock" stroke="none" stroke-width="1" fill="none" fill-rule="evenodd">
        <g id="lock">
            <g id="Bounding_Boxes">
                <polygon id="Shape" points="0 0 24 0 24 24 0 24"></polygon>
            </g>
            <path class="primary" d="M12,17.5 C13.1045695,17.5 14,16.6045695 14,15.5 C14,14.3954305 13.1045695,13.5 12,13.5 C10.8954305,13.5 10,14.3954305 10,15.5 C10,16.6045695 10.8954305,17.5 12,17.5 Z" id="c2/lock" fill="#B0A8FF"></path>
            <path class="secondary" d="M6,9 L6,8 C6,4.6862915 8.6862915,2 12,2 C15.3137085,2 18,4.6862915 18,8 L18,9 L19,9 C19.5522847,9 20,9.44771525 20,10 L20,20 C20,21.1045695 19.1045695,22 18,22 L6,22 C4.8954305,22 4,21.1045695 4,20 L4,10 C4,9.44771525 4.44771525,9 5,9 L6,9 Z M8,9 L16,9 L16,8 C16,5.790861 14.209139,4 12,4 C9.790861,4 8,5.790861 8,8 L8,9 Z M17.6,11 L6.4,11 C6.1790861,11 6,11.1790861 6,11.4 L6,19.6 C6,19.8209139 6.1790861,20 6.4,20 L17.6,20 C17.8209139,20 18,19.8209139 18,19.6 L18,11.4 C18,11.1790861 17.8209139,11 17.6,11 Z" id="c1/lock" fill="#594BC8"></path>
        </g>
    </g>
</svg>