<?xml version="1.0" encoding="UTF-8"?>
<svg width="24px" height="24px" viewBox="0 0 24 24" version="1.1" xmlns="http://www.w3.org/2000/svg" xmlns:xlink="http://www.w3.org/1999/xlink">
    <!-- Generator: Sketch 53.2 (72643) - https://sketchapp.com -->
    <title>24x24/CAMERA/night-scene-mode</title>
    <desc>Created with Sketch.</desc>
    <g id="24x24/CAMERA/night-scene-mode" stroke="none" stroke-width="1" fill="none" fill-rule="evenodd">
        <g id="night-scene-mode">
            <g id="Bounding_Boxes">
                <polygon id="Shape" points="0 0 24 0 24 24 0 24"></polygon>
            </g>
            <path class="primary" d="M2.79105447,15.8277647 C2.57420866,15.3140834 2.81484556,14.721876 3.32853204,14.5050323 C3.84221852,14.2881887 4.43443196,14.5288232 4.65127778,15.0425045 C5.46851338,16.9784359 7.02026689,18.5304839 8.95604793,19.3481081 C9.46968985,19.5650572 9.71020508,20.1573141 9.49325373,20.6709508 C9.27630238,21.1845875 8.68403952,21.4251003 8.1703976,21.2081512 C5.75011907,20.1858877 3.81283347,18.2482345 2.79105447,15.8277647 Z" id="c2/night-scene-mode" fill="#B0A8FF"></path>
            <path class="secondary" d="M19.1181989,15.8970297 C18.8006605,15.9271333 18.4788373,15.9425295 18.1534181,15.9425295 C12.5776141,15.9425295 8.05753179,11.422493 8.05753179,5.8467454 C8.05753179,5.52132951 8.07292814,5.19950959 8.10303213,4.88197434 C5.61121823,6.31320039 4.01917726,8.9580833 4.01917726,11.9042159 C4.01917726,12.4617906 3.56716904,12.9137943 3.00958863,12.9137943 C2.45200823,12.9137943 2,12.4617906 2,11.9042159 C2,7.75636962 4.52455886,4.08649009 8.28182733,2.55392695 C8.87557852,2.31347029 9.46443092,2.13489605 10.073189,2.0110992 C10.3697705,1.95078648 10.6590909,2.14231773 10.7194042,2.43889622 C10.7414146,2.54712768 10.7302067,2.65948415 10.6872498,2.76123505 C10.2855993,3.75134042 10.0767091,4.7746487 10.0767091,5.8467454 C10.0767091,10.3073435 13.6927749,13.9233727 18.1534181,13.9233727 C19.2247095,13.9233727 20.2472862,13.7148025 21.182756,13.3360541 C21.5112882,13.1943202 21.8342914,13.3219983 21.9547634,13.599968 C21.9994377,13.7030468 22.0113852,13.8173568 21.9889907,13.9274454 C21.8238974,14.7390246 21.5614417,15.51522 21.2143497,16.2433054 C20.4339206,17.8828978 19.236473,19.258375 17.7738441,20.2532381 C17.5984702,20.3727344 17.4191363,20.4868496 17.2360797,20.5953461 C15.7179317,21.4931364 13.9544018,22 12.0958863,22 C11.5383059,22 11.0862977,21.5479963 11.0862977,20.9904216 C11.0862977,20.4328468 11.5383059,19.9808432 12.0958863,19.9808432 C15.0243453,19.9808432 17.6580537,18.4079133 19.0792524,15.9663529 C19.0923324,15.9427483 19.1053146,15.9196406 19.1181989,15.8970297 Z" id="c1/night-scene-mode" fill="#594BC8"></path>
        </g>
    </g>
</svg>