<?xml version="1.0" encoding="UTF-8"?>
<svg width="24px" height="24px" viewBox="0 0 24 24" version="1.1" xmlns="http://www.w3.org/2000/svg" xmlns:xlink="http://www.w3.org/1999/xlink">
    <!-- Generator: Sketch 53.2 (72643) - https://sketchapp.com -->
    <title>24x24/USER INTERFACE/notification</title>
    <desc>Created with Sketch.</desc>
    <g id="24x24/USER-INTERFACE/notification" stroke="none" stroke-width="1" fill="none" fill-rule="evenodd">
        <g id="notification">
            <g id="Bounding_Boxes">
                <polygon id="Shape" points="0 0 24 0 24 24 0 24"></polygon>
            </g>
            <path class="primary" d="M9.18793658,19 L14.8145963,19.000044 C14.9138806,19.000044 14.9943663,19.0805298 14.9943663,19.179814 C14.9943663,19.1835762 14.9942482,19.1873374 14.9940122,19.1910921 C14.9940122,19.1910921 14.9940122,19.1910921 14.9940122,19.1910921 C14.8954596,20.7589079 13.5926661,22 12,22 C10.4082274,22 9.1060023,20.7603001 9.00615479,19.1937306 C9.00615479,19.1937306 9.00615479,19.1937306 9.00615479,19.1937306 L9.00615479,19.1937306 C8.99975595,19.0933353 9.07595515,19.0067615 9.17635046,19.0003627 C9.18020761,19.0001168 9.18407161,18.9999938 9.18793658,18.9999938 Z" id="c2/notification" fill="#B0A8FF"></path>
            <path class="secondary" d="M19,16 L20,16 C20.5522847,16 21,16.4477153 21,17 C21,17.5522847 20.5522847,18 20,18 L4,18 C3.44771525,18 3,17.5522847 3,17 C3,16.4477153 3.44771525,16 4,16 L5,16 L5.50172712,9.97927455 C5.73166056,7.2200733 7.65696623,4.98081531 10.2016017,4.25160263 C10.0734,4.03061081 10,3.77387715 10,3.5 C10,2.67157288 10.6715729,2 11.5,2 L12.5,2 C13.3284271,2 14,2.67157288 14,3.5 C14,3.77387715 13.9266,4.03061081 13.7983983,4.25160263 C16.3430338,4.98081531 18.2683394,7.2200733 18.4982729,9.97927455 L19,16 Z M16.5051814,10.1453655 C16.3482088,8.26169475 15.0393059,6.68770927 13.2474376,6.17421604 L13.1019214,6.13251564 C12.3817998,5.92615141 11.6182002,5.92615141 10.8980786,6.13251564 L10.7525624,6.17421604 C8.96069408,6.68770927 7.6517912,8.26169475 7.49481864,10.1453655 L7.00693243,16 L16.9930676,16 L16.5051814,10.1453655 Z" id="c1/notification" fill="#594BC8"></path>
        </g>
    </g>
</svg>