<?xml version="1.0" encoding="UTF-8"?>
<svg width="24px" height="24px" viewBox="0 0 24 24" version="1.1" xmlns="http://www.w3.org/2000/svg" xmlns:xlink="http://www.w3.org/1999/xlink">
    <!-- Generator: Sketch 53.2 (72643) - https://sketchapp.com -->
    <title>24x24/COMMUNICATION/contacter</title>
    <desc>Created with Sketch.</desc>
    <g id="24x24/COMMUNICATION/contacter" stroke="none" stroke-width="1" fill="none" fill-rule="evenodd">
        <g id="contacter">
            <g id="Bounding_Boxes">
                <polygon id="Shape" points="0 0 24 0 24 24 0 24"></polygon>
            </g>
            <rect class="primary" id="c2/contacter" fill="#B0A8FF" x="10" y="19" width="4" height="2"></rect>
            <path class="secondary" d="M15,20.4 L15,19.6 C15,19.2686292 15.2686292,19 15.6,19 L16.8,19 C16.9104569,19 17,18.9104569 17,18.8 L17,17 C17,14.790861 15.209139,13 13,13 L11,13 C8.790861,13 7,14.790861 7,17 L7,18.8 C7,18.9104569 7.08954305,19 7.2,19 L8.4,19 C8.73137085,19 9,19.2686292 9,19.6 L9,20.4 C9,20.7313708 8.73137085,21 8.4,21 L5.6,21 C5.26862915,21 5,20.7313708 5,20.4 L5,17 C5,14.5857187 6.42593678,12.5044828 8.48155826,11.5525444 C7.56669714,10.6464109 7,9.38938504 7,8 C7,5.23857625 9.23857625,3 12,3 C14.7614237,3 17,5.23857625 17,8 C17,9.38938504 16.4333029,10.6464109 15.5184417,11.5525444 C17.5740632,12.5044828 19,14.5857187 19,17 L19,20.4 C19,20.7313708 18.7313708,21 18.4,21 L15.6,21 C15.2686292,21 15,20.7313708 15,20.4 Z M12,11 C13.6568542,11 15,9.65685425 15,8 C15,6.34314575 13.6568542,5 12,5 C10.3431458,5 9,6.34314575 9,8 C9,9.65685425 10.3431458,11 12,11 Z" id="c1/contacter" fill="#594BC8"></path>
        </g>
    </g>
</svg>