<?xml version="1.0" encoding="UTF-8"?>
<svg width="24px" height="24px" viewBox="0 0 24 24" version="1.1" xmlns="http://www.w3.org/2000/svg" xmlns:xlink="http://www.w3.org/1999/xlink">
    <!-- Generator: Sketch 53.2 (72643) - https://sketchapp.com -->
    <title>24x24/USER INTERFACE/setting</title>
    <desc>Created with Sketch.</desc>
    <g id="24x24/USER-INTERFACE/setting" stroke="none" stroke-width="1" fill="none" fill-rule="evenodd">
        <g id="setting">
            <g id="Bounding_Boxes">
                <polygon id="Shape" points="0 0 24 0 24 24 0 24"></polygon>
            </g>
            <path class="primary" d="M16,12 C16,12.5522847 15.5522847,13 15,13 C14.4477153,13 14,12.5522847 14,12 C14,10.8954305 13.1045695,10 12,10 C10.8954305,10 10,10.8954305 10,12 C10,13.1045695 10.8954305,14 12,14 C12.5522847,14 13,14.4477153 13,15 C13,15.5522847 12.5522847,16 12,16 C9.790861,16 8,14.209139 8,12 C8,9.790861 9.790861,8 12,8 C14.209139,8 16,9.790861 16,12 Z" id="c2/setting" fill="#B0A8FF"></path>
            <path class="secondary" d="M10.3030304,2 L13.6969696,2 C14.5258753,2 15.2333004,2.6072729 15.339708,3.42854099 L15.4756968,4.47812099 C15.4915055,4.600134 15.5625844,4.70808395 15.6684215,4.77081829 L16.5596307,5.29907758 C16.6675002,5.36301666 16.7991109,5.37267077 16.915156,5.3251566 L18.0126107,4.87580832 C18.7742924,4.56394091 19.6560593,4.8527327 20.0755928,5.56013234 L21.7725624,8.42149076 C22.1997571,9.1418085 22.0091043,10.0618264 21.335343,10.5594877 L20.2762843,11.3417417 C20.1741833,11.4171567 20.1139369,11.5365558 20.1139369,11.6634889 L20.1139369,12.3365111 C20.1139369,12.4634442 20.1741833,12.5828433 20.2762843,12.6582583 L21.335343,13.4405123 C22.0091043,13.9381736 22.1997571,14.8581915 21.7725624,15.5785092 L20.0755928,18.4398677 C19.6560593,19.1472673 18.7742924,19.4360591 18.0126107,19.1241917 L16.915156,18.6748434 C16.7991109,18.6273292 16.6675002,18.6369833 16.5596307,18.7009224 L15.6684215,19.2291817 C15.5625844,19.2919161 15.4915055,19.399866 15.4756968,19.521879 L15.339708,20.571459 C15.2333004,21.3927271 14.5258753,22 13.6969696,22 L10.3030304,22 C9.47412475,22 8.76669955,21.3927271 8.66029197,20.571459 L8.52430315,19.521879 C8.50849454,19.399866 8.43741559,19.2919161 8.33157851,19.2291817 L7.44036933,18.7009224 C7.33249977,18.6369833 7.20088908,18.6273292 7.08484403,18.6748434 L5.98738929,19.1241917 C5.22570758,19.4360591 4.34394067,19.1472673 3.9244072,18.4398677 L2.22743764,15.5785092 C1.80024289,14.8581915 1.99089567,13.9381736 2.66465702,13.4405123 L3.72371569,12.6582583 C3.82581665,12.5828433 3.88606312,12.4634442 3.88606312,12.3365111 L3.88606312,11.6634889 C3.88606312,11.5365558 3.82581665,11.4171567 3.72371569,11.3417417 L2.66465702,10.5594877 C1.99089567,10.0618264 1.80024289,9.1418085 2.22743764,8.42149076 L3.9244072,5.56013234 C4.34394067,4.8527327 5.22570758,4.56394091 5.98738929,4.87580832 L7.08484403,5.3251566 C7.20088908,5.37267077 7.33249977,5.36301666 7.44036933,5.29907758 L8.33157851,4.77081829 C8.43741559,4.70808395 8.50849454,4.600134 8.52430315,4.47812099 L8.66029197,3.42854099 C8.76669955,2.6072729 9.47412475,2 10.3030304,2 Z M10.3272195,5.06271591 C10.2564147,5.60499822 9.93806327,6.08477696 9.46403671,6.36359495 L8.25190097,7.07656184 C7.76877868,7.36072985 7.17932794,7.40363616 6.65959032,7.19246663 L5.83169845,6.85609396 C5.64880752,6.78178533 5.43905449,6.85201491 5.3377799,7.02146792 L4.18680541,8.94728275 C4.08091992,9.12445074 4.12722024,9.3530932 4.29369069,9.47510885 L5.06933971,10.0436261 C5.52663431,10.3788033 5.79646958,10.9094688 5.79646958,11.4736198 L5.79646958,12.5263802 C5.79646958,13.0905312 5.52663431,13.6211967 5.06933971,13.9563739 L4.29369069,14.5248911 C4.12722024,14.6469068 4.08091992,14.8755493 4.18680541,15.0527172 L5.3377799,16.9785321 C5.43905449,17.1479851 5.64880752,17.2182147 5.83169845,17.143906 L6.65959032,16.8075334 C7.17932794,16.5963638 7.76877868,16.6392701 8.25190097,16.9234382 L9.46403671,17.636405 C9.93806327,17.915223 10.2564147,18.3950018 10.3272195,18.9372841 L10.4205109,19.6517877 C10.4465205,19.8509916 10.6162495,20 10.8171442,20 L13.1828558,20 C13.3837505,20 13.5534795,19.8509916 13.5794891,19.6517877 L13.6727805,18.9372841 C13.7435853,18.3950018 14.0619367,17.915223 14.5359633,17.636405 L15.748099,16.9234382 C16.2312213,16.6392701 16.8206721,16.5963638 17.3404097,16.8075334 L18.1683015,17.143906 C18.3511925,17.2182147 18.5609455,17.1479851 18.6622201,16.9785321 L19.8131946,15.0527172 C19.9190801,14.8755493 19.8727798,14.6469068 19.7063093,14.5248911 L18.9306603,13.9563739 C18.4733657,13.6211967 18.2035304,13.0905312 18.2035304,12.5263802 L18.2035304,11.4736198 C18.2035304,10.9094688 18.4733657,10.3788033 18.9306603,10.0436261 L19.7063093,9.47510885 C19.8727798,9.3530932 19.9190801,9.12445074 19.8131946,8.94728275 L18.6622201,7.02146792 C18.5609455,6.85201491 18.3511925,6.78178533 18.1683015,6.85609396 L17.3404097,7.19246663 C16.8206721,7.40363616 16.2312213,7.36072985 15.748099,7.07656184 L14.5359633,6.36359495 C14.0619367,6.08477696 13.7435853,5.60499822 13.6727805,5.06271591 L13.5794891,4.34821234 C13.5534795,4.14900843 13.3837505,4 13.1828558,4 L10.8171442,4 C10.6162495,4 10.4465205,4.14900843 10.4205109,4.34821234 L10.3272195,5.06271591 Z" id="c1/setting" fill="#594BC8"></path>
        </g>
    </g>
</svg>