<?xml version="1.0" encoding="UTF-8"?>
<svg width="24px" height="24px" viewBox="0 0 24 24" version="1.1" xmlns="http://www.w3.org/2000/svg" xmlns:xlink="http://www.w3.org/1999/xlink">
    <!-- Generator: Sketch 53.2 (72643) - https://sketchapp.com -->
    <title>24x24/E-COMMERCE/security-03</title>
    <desc>Created with Sketch.</desc>
    <g id="24x24/E-COMMERCE/security-03" stroke="none" stroke-width="1" fill="none" fill-rule="evenodd">
        <g id="security-03">
            <g id="Bounding_Boxes">
                <polygon id="Shape" points="0 0 24 0 24 24 0 24"></polygon>
            </g>
            <rect class="primary" id="c2/security-03" fill="#B0A8FF" x="18" y="9" width="2" height="2" rx="0.400000006"></rect>
            <path class="secondary" d="M6,12.7502681 C6,13.2595651 6.09490427,13.7674007 6.29008647,14.2848569 C6.50887384,14.8651307 6.77289228,15.3666541 7.08007196,15.7938174 C7.41784023,16.2636301 7.82706903,16.7284491 8.30987696,17.1877255 C8.82392858,17.6768964 9.29074961,18.0763497 9.70520704,18.3845363 C10.1397144,18.7073835 10.5927867,19.0123627 11.0645953,19.2993737 C11.5015156,19.5652764 11.8180397,19.7506682 11.9998743,19.8487727 C12.1808281,19.7511929 12.4984379,19.5652409 12.9351582,19.2994438 C13.4074966,19.0119427 13.860773,18.7068195 14.2941016,18.3847898 C14.7088109,18.0765162 15.1754782,17.6772193 15.68986,17.1878509 C16.1727524,16.7282474 16.5821599,16.2632158 16.9196372,15.7937956 C17.2265277,15.3669439 17.4907799,14.8650717 17.7101256,14.2844108 C17.9051412,13.7675584 18,13.2598068 18,12.7502681 L18,12.5999979 C18,12.268627 18.2686292,11.9999979 18.6,11.9999979 L19.4,11.9999979 C19.7313708,11.9999979 20,12.268627 20,12.5999979 L20,12.7502714 C20,13.5036261 19.8606419,14.2502622 19.5813565,14.9904559 C19.3017647,15.7306035 18.9559745,16.3875973 18.5435043,16.9612991 C18.1309903,17.535093 17.6392309,18.093563 17.0687076,18.6365711 C16.4977028,19.1798093 15.9707427,19.630506 15.4872581,19.9899037 C15.0040799,20.3489793 14.4997113,20.6884974 13.9750278,21.0078598 C13.4499941,21.3274063 13.0767964,21.5445635 12.8560913,21.658273 C12.6353863,21.7723047 12.4582881,21.8598303 12.3251032,21.9209417 C12.22493,21.9735399 12.1168323,22 11.9998905,22 C11.8830802,22 11.7748511,21.9735399 11.6747654,21.9209417 C11.541493,21.8598303 11.3643948,21.7723047 11.1436022,21.658273 C10.9228534,21.5445635 10.5498308,21.3273602 10.0248408,21.0078598 C9.49985087,20.6884974 8.99565737,20.3489793 8.51239167,19.9899037 C8.02912597,19.630552 7.50207828,19.1798553 6.93116102,18.6365711 C6.36033132,18.093563 5.86874704,17.535139 5.45618927,16.9612991 C5.0436315,16.3875973 4.69775371,15.7306035 4.41868725,14.9904559 C4.13948945,14.2502622 4,13.5036261 4,12.7502714 L4,5.68718341 C4,5.45944214 4.07920164,5.26234861 4.23747356,5.09599486 C4.39583305,4.92954908 4.58335135,4.84639521 4.8001598,4.84639521 C7.90121614,3.93134013 10.0061002,3.12562559 11.1148118,2.4292516 C11.2287458,2.35769046 11.3693732,2.26391067 11.536694,2.14791224 C11.8211269,1.95070041 12.1788447,1.95069861 12.4632882,2.14789071 C12.6308198,2.26403301 12.7716167,2.35792086 12.8856788,2.42955428 C13.9943609,3.12583025 16.0991981,3.9314439 19.2001905,4.84639521 C19.4168238,4.84639521 19.6043859,4.92954908 19.7629205,5.09599486 C19.9208421,5.26239463 19.9999562,5.45930409 20,5.68718341 L20,7.39999789 C20,7.73136874 19.7313708,7.99999789 19.4,7.99999789 L18.6,7.99999789 C18.2686292,7.99999789 18,7.73136874 18,7.39999789 L18,6.57492856 C15.2137847,5.72959007 13.2360136,4.96506925 11.9999981,4.23183715 C10.7638452,4.96510693 8.78606756,5.72966068 6,6.57501757 L6,12.7502681 Z M11.414494,12.3861587 L14.5371926,9.16669328 C14.7527699,8.94443557 15.1022899,8.94443557 15.3178672,9.16669328 L15.838317,9.70327086 C16.0538943,9.92552857 16.0538943,10.2858795 15.838317,10.5081372 L11.8048313,14.6666134 C11.3736766,15.1111289 10.6746368,15.1111289 10.2434821,14.6666134 L8.16168301,12.5203031 C7.94610566,12.2980454 7.94610566,11.9376945 8.16168301,11.7154368 L8.68213277,11.1788592 C8.89771012,10.9566015 9.24723007,10.9566015 9.46280741,11.1788592 L10.6338194,12.3861587 C10.8493967,12.6084164 11.1989167,12.6084164 11.414494,12.3861587 Z" id="c1/security-03" fill="#594BC8"></path>
        </g>
    </g>
</svg>