<?xml version="1.0" encoding="UTF-8"?>
<svg width="24px" height="24px" viewBox="0 0 24 24" version="1.1" xmlns="http://www.w3.org/2000/svg" xmlns:xlink="http://www.w3.org/1999/xlink">
    <!-- Generator: Sketch 53.2 (72643) - https://sketchapp.com -->
    <title>24x24/DESIGN TOOLS/exposure</title>
    <desc>Created with Sketch.</desc>
    <g id="24x24/DESIGN-TOOLS/exposure" stroke="none" stroke-width="1" fill="none" fill-rule="evenodd">
        <g id="exposure">
            <g id="Bounding_Boxes">
                <polygon id="Shape" points="0 0 24 0 24 24 0 24"></polygon>
            </g>
            <path class="primary" d="M18.6468037,4.50466812 L19.4953319,5.35319625 C19.6515416,5.50940597 19.6515416,5.76267197 19.4953319,5.91888169 L18.6468037,6.76740981 C18.490594,6.92361953 18.237328,6.92361953 18.0811183,6.76740981 L17.2325902,5.91888169 C17.0763805,5.76267197 17.0763805,5.50940597 17.2325902,5.35319625 L18.0811183,4.50466812 C18.237328,4.3484584 18.490594,4.3484584 18.6468037,4.50466812 Z M5.91888169,17.2325902 L6.76740981,18.0811183 C6.92361953,18.237328 6.92361953,18.490594 6.76740981,18.6468037 L5.91888169,19.4953319 C5.76267197,19.6515416 5.50940597,19.6515416 5.35319625,19.4953319 L4.50466812,18.6468037 C4.3484584,18.490594 4.3484584,18.237328 4.50466812,18.0811183 L5.35319625,17.2325902 C5.50940597,17.0763805 5.76267197,17.0763805 5.91888169,17.2325902 Z M5.35319625,4.50466812 C5.50940597,4.3484584 5.76267197,4.3484584 5.91888169,4.50466812 L6.76740982,5.35319625 C6.92361953,5.50940597 6.92361953,5.76267197 6.76740982,5.91888169 L5.91888169,6.76740981 C5.76267197,6.92361953 5.50940597,6.92361953 5.35319625,6.76740981 L4.50466812,5.91888169 C4.3484584,5.76267197 4.3484584,5.50940597 4.50466812,5.35319625 L5.35319625,4.50466812 Z M18.0811183,17.2325902 C18.237328,17.0763805 18.490594,17.0763805 18.6468037,17.2325902 L19.4953319,18.0811183 C19.6515416,18.237328 19.6515416,18.490594 19.4953319,18.6468037 L18.6468037,19.4953319 C18.490594,19.6515416 18.237328,19.6515416 18.0811183,19.4953319 L17.2325902,18.6468037 C17.0763805,18.490594 17.0763805,18.237328 17.2325902,18.0811183 L18.0811183,17.2325902 Z" id="c2/exposure" fill="#B0A8FF"></path>
            <path class="secondary" d="M12,19 C8.13400675,19 5,15.8659932 5,12 C5,8.13400675 8.13400675,5 12,5 C15.8659932,5 19,8.13400675 19,12 C19,15.8659932 15.8659932,19 12,19 Z M12,17 C14.7614237,17 17,14.7614237 17,12 C17,9.23857625 14.7614237,7 12,7 C9.23857625,7 7,9.23857625 7,12 C7,14.7614237 9.23857625,17 12,17 Z M11.4,2 L12.6,2 C12.8209139,2 13,2.1790861 13,2.40000001 L13,3.59999999 C13,3.8209139 12.8209139,4 12.6,4 L11.4,4 C11.1790861,4 11,3.8209139 11,3.59999999 L11,2.40000001 C11,2.1790861 11.1790861,2 11.4,2 Z M11.4,20 L12.6,20 C12.8209139,20 13,20.1790861 13,20.4 L13,21.6 C13,21.8209139 12.8209139,22 12.6,22 L11.4,22 C11.1790861,22 11,21.8209139 11,21.6 L11,20.4 C11,20.1790861 11.1790861,20 11.4,20 Z M22,11.4 L22,12.6 C22,12.8209139 21.8209139,13 21.6,13 L20.4,13 C20.1790861,13 20,12.8209139 20,12.6 L20,11.4 C20,11.1790861 20.1790861,11 20.4,11 L21.6,11 C21.8209139,11 22,11.1790861 22,11.4 Z M4,11.4 L4,12.6 C4,12.8209139 3.8209139,13 3.59999999,13 L2.40000001,13 C2.1790861,13 2,12.8209139 2,12.6 L2,11.4 C2,11.1790861 2.1790861,11 2.40000001,11 L3.59999999,11 C3.8209139,11 4,11.1790861 4,11.4 Z" id="c1/exposure" fill="#594BC8"></path>
        </g>
    </g>
</svg>